<svg width="32" height="36" viewBox="0 0 32 36" fill="none" xmlns="http://www.w3.org/2000/svg">
<path d="M12.0784 26.7741C11.3648 26.0765 11.3088 25.1053 12.0784 24.2525L18.0736 17.9997L12.0784 11.7469C11.3088 10.8941 11.3648 9.92132 12.0784 9.22852C12.7904 8.53092 13.9936 8.57572 14.6624 9.22852C15.3312 9.87812 21.8656 16.7405 21.8656 16.7405C22.0349 16.9039 22.1696 17.0998 22.2616 17.3164C22.3536 17.533 22.4011 17.766 22.4011 18.0013C22.4011 18.2367 22.3536 18.4696 22.2616 18.6862C22.1696 18.9028 22.0349 19.0987 21.8656 19.2621C21.8656 19.2621 15.3312 26.1213 14.6624 26.7741C13.9936 27.4285 12.7904 27.4717 12.0784 26.7741Z" fill="#D9D8D6"/>
</svg>
