<svg width="90" height="61" viewBox="0 0 90 61" fill="none" xmlns="http://www.w3.org/2000/svg">
<path fill-rule="evenodd" clip-rule="evenodd" d="M64.3929 60.291C64.3929 56.9282 65.0552 53.5984 66.3421 50.4916C67.629 47.3848 69.5152 44.5619 71.893 42.184C74.2709 39.8062 77.0938 37.92 80.2006 36.6331C83.3074 35.3462 86.6372 34.6839 90 34.6839V25.791H87.66C85.0995 25.5561 82.5844 24.9363 80.2006 23.9489C77.0938 22.6621 74.2709 20.7758 71.893 18.398C69.5152 16.0202 67.629 13.1972 66.3421 10.0904C65.0552 6.98364 64.3929 3.65379 64.3929 0.291016H55.6071C55.6071 4.80755 56.4967 9.27986 58.2251 13.4526C59.9535 17.6253 62.4869 21.4168 65.6806 24.6104C66.0848 25.0146 66.4986 25.4083 66.9215 25.791L0 25.791V34.5767L67.1605 34.5767C66.6541 35.0264 66.1606 35.4916 65.6806 35.9716C62.4869 39.1653 59.9535 42.9567 58.2251 47.1294C56.4967 51.3022 55.6071 55.7745 55.6071 60.291H64.3929Z" fill="#353535"/>
</svg>
