<svg width="90" height="61" viewBox="0 0 90 61" fill="none" xmlns="http://www.w3.org/2000/svg">
<path fill-rule="evenodd" clip-rule="evenodd" d="M25.6071 0.291016C25.6071 3.65379 24.9448 6.98364 23.6579 10.0904C22.371 13.1972 20.4848 16.0202 18.107 18.398C15.7291 20.7758 12.9062 22.6621 9.79943 23.9489C6.69263 25.2358 3.36278 25.8982 0 25.8982V34.791H2.33997C4.90053 35.026 7.41563 35.6457 9.79943 36.6331C12.9062 37.92 15.7291 39.8062 18.107 42.184C20.4848 44.5619 22.371 47.3848 23.6579 50.4916C24.9448 53.5984 25.6071 56.9282 25.6071 60.291H34.3929C34.3929 55.7745 33.5033 51.3022 31.7749 47.1294C30.0465 42.9567 27.5131 39.1653 24.3194 35.9716C23.9152 35.5674 23.5014 35.1738 23.0785 34.791L90 34.791V26.0053L22.8395 26.0053C23.3459 25.5556 23.8394 25.0905 24.3194 24.6104C27.5131 21.4168 30.0465 17.6253 31.7749 13.4526C33.5033 9.27986 34.3929 4.80755 34.3929 0.291016H25.6071Z" fill="#353535"/>
</svg>
