<svg width="32" height="32" viewBox="0 0 32 32" fill="none" xmlns="http://www.w3.org/2000/svg">
<g opacity="0.9" clip-path="url(#clip0_260_337)">
<mask id="path-1-outside-1_260_337" maskUnits="userSpaceOnUse" x="-1" y="3" width="34" height="25" fill="black">
<rect fill="white" x="-1" y="3" width="34" height="25"/>
<path d="M31.5871 17.2135C31.4098 17.3502 31.1916 17.4229 30.9677 17.42C30.8075 17.42 30.6494 17.3827 30.5061 17.311C30.3628 17.2393 30.2381 17.1353 30.1419 17.0071C29.5198 16.1708 28.7099 15.4922 27.7776 15.0261C26.8453 14.5599 25.8165 14.3192 24.7742 14.3232C24.5004 14.3232 24.2379 14.2145 24.0443 14.0209C23.8507 13.8273 23.7419 13.5647 23.7419 13.291C23.7419 13.0172 23.8507 12.7546 24.0443 12.561C24.2379 12.3675 24.5004 12.2587 24.7742 12.2587C25.3617 12.2581 25.9369 12.0903 26.4326 11.7751C26.9284 11.4598 27.3242 11.0101 27.5739 10.4783C27.8237 9.94654 27.917 9.3547 27.843 8.77189C27.769 8.18908 27.5307 7.63934 27.1561 7.18684C26.7814 6.73435 26.2857 6.39778 25.7269 6.21641C25.1681 6.03505 24.5692 6.01638 24.0002 6.16258C23.4312 6.30879 22.9155 6.61383 22.5134 7.04211C22.1112 7.47038 21.8392 8.00421 21.729 8.58128C21.709 8.71928 21.6612 8.85178 21.5886 8.9708C21.5159 9.08981 21.4199 9.19288 21.3064 9.27377C21.1928 9.35467 21.064 9.41171 20.9278 9.44147C20.7915 9.47123 20.6507 9.47308 20.5137 9.4469C20.3768 9.42073 20.2465 9.36709 20.1309 9.2892C20.0152 9.21131 19.9166 9.1108 19.8408 8.99373C19.7651 8.87666 19.7138 8.74546 19.6902 8.60804C19.6665 8.47063 19.671 8.32984 19.7032 8.19419C19.8564 7.39138 20.198 6.63642 20.6999 5.99143C21.2018 5.34645 21.8498 4.82988 22.5904 4.48425C23.331 4.13862 24.1431 3.97381 24.9598 4.00338C25.7766 4.03295 26.5746 4.25605 27.2883 4.65433C28.002 5.05261 28.6109 5.61467 29.0648 6.29426C29.5188 6.97385 29.8049 7.75154 29.8996 8.56332C29.9943 9.3751 29.8949 10.1978 29.6095 10.9636C29.3241 11.7294 28.8609 12.4165 28.2581 12.9684C29.661 13.5767 30.88 14.5421 31.7935 15.7684C31.8749 15.8768 31.9341 16.0002 31.9677 16.1315C32.0013 16.2629 32.0088 16.3995 31.9896 16.5337C31.9705 16.6679 31.925 16.797 31.856 16.9137C31.7869 17.0303 31.6955 17.1322 31.5871 17.2135ZM24.3613 25.7426C24.4778 25.9895 24.4931 26.2721 24.4038 26.5302C24.3146 26.7882 24.128 27.001 23.8839 27.1232C23.7415 27.1866 23.5881 27.2217 23.4323 27.2264C23.2388 27.2251 23.0496 27.1701 22.8856 27.0676C22.7215 26.9651 22.5892 26.8191 22.5032 26.6458C21.908 25.4282 20.9829 24.4021 19.8331 23.6844C18.6834 22.9667 17.3553 22.5862 16 22.5862C14.6447 22.5862 13.3166 22.9667 12.1669 23.6844C11.0171 24.4021 10.092 25.4282 9.49678 26.6458C9.43754 26.7679 9.35483 26.8771 9.25336 26.9671C9.15189 27.0572 9.03366 27.1264 8.90543 27.1707C8.7772 27.2151 8.64149 27.2337 8.50605 27.2255C8.37062 27.2174 8.23812 27.1826 8.11613 27.1232C7.872 27.001 7.68537 26.7882 7.59616 26.5302C7.50694 26.2721 7.52221 25.9895 7.63871 25.7426C8.59804 23.7672 10.2252 22.1949 12.2323 21.3039C11.2049 20.5164 10.4501 19.4269 10.0739 18.1884C9.69763 16.95 9.71887 15.6247 10.1346 14.3989C10.5503 13.1731 11.3397 12.1083 12.3917 11.3542C13.4438 10.6001 14.7056 10.1946 16 10.1946C17.2944 10.1946 18.5562 10.6001 19.6083 11.3542C20.6603 12.1083 21.4497 13.1731 21.8654 14.3989C22.2811 15.6247 22.3024 16.95 21.9261 18.1884C21.5499 19.4269 20.7951 20.5164 19.7677 21.3039C21.7748 22.1949 23.402 23.7672 24.3613 25.7426ZM16 20.5168C16.8166 20.5168 17.615 20.2746 18.294 19.8209C18.973 19.3672 19.5022 18.7223 19.8147 17.9678C20.1272 17.2134 20.209 16.3832 20.0497 15.5822C19.8904 14.7812 19.4971 14.0455 18.9197 13.4681C18.3422 12.8906 17.6065 12.4974 16.8055 12.338C16.0046 12.1787 15.1744 12.2605 14.4199 12.573C13.6654 12.8855 13.0205 13.4148 12.5668 14.0938C12.1131 14.7728 11.871 15.5711 11.871 16.3877C11.8744 17.4818 12.3105 18.53 13.0841 19.3036C13.8577 20.0772 14.906 20.5134 16 20.5168ZM8.25807 13.291C8.25807 13.0172 8.14931 12.7546 7.95573 12.561C7.76214 12.3675 7.49958 12.2587 7.22581 12.2587C6.63832 12.2581 6.06313 12.0903 5.56738 11.7751C5.07163 11.4598 4.67579 11.0101 4.42606 10.4783C4.17633 9.94654 4.08301 9.3547 4.15701 8.77189C4.231 8.18908 4.46925 7.63934 4.84395 7.18684C5.21865 6.73435 5.71432 6.39778 6.27312 6.21641C6.83192 6.03505 7.43078 6.01638 7.99978 6.16258C8.56879 6.30879 9.08447 6.61383 9.48663 7.04211C9.88878 7.47038 10.1608 8.00421 10.271 8.58128C10.291 8.71928 10.3388 8.85178 10.4114 8.9708C10.4841 9.08981 10.5801 9.19288 10.6937 9.27377C10.8072 9.35467 10.936 9.41171 11.0722 9.44147C11.2085 9.47123 11.3493 9.47308 11.4863 9.4469C11.6232 9.42073 11.7535 9.36709 11.8691 9.2892C11.9848 9.21131 12.0835 9.1108 12.1592 8.99373C12.2349 8.87666 12.2862 8.74546 12.3098 8.60804C12.3335 8.47063 12.329 8.32984 12.2968 8.19419C12.1436 7.39138 11.802 6.63642 11.3001 5.99143C10.7982 5.34645 10.1502 4.82988 9.40962 4.48425C8.66902 4.13862 7.85692 3.97381 7.04017 4.00338C6.22343 4.03295 5.42538 4.25605 4.71171 4.65433C3.99804 5.05261 3.38915 5.61467 2.93516 6.29426C2.48117 6.97385 2.19506 7.75154 2.10037 8.56332C2.00568 9.3751 2.10513 10.1978 2.39052 10.9636C2.67591 11.7294 3.13909 12.4165 3.74194 12.9684C2.33899 13.5767 1.11999 14.5421 0.206456 15.7684C0.0421927 15.9874 -0.0283382 16.2627 0.0103789 16.5337C0.0490961 16.8047 0.19389 17.0493 0.412907 17.2135C0.59021 17.3502 0.808449 17.4229 1.03226 17.42C1.19252 17.42 1.35057 17.3827 1.4939 17.311C1.63724 17.2393 1.76192 17.1353 1.85807 17.0071C2.48024 16.1708 3.29009 15.4922 4.2224 15.0261C5.15472 14.5599 6.18346 14.3192 7.22581 14.3232C7.49958 14.3232 7.76214 14.2145 7.95573 14.0209C8.14931 13.8273 8.25807 13.5647 8.25807 13.291Z"/>
</mask>
<path d="M31.5871 17.2135C31.4098 17.3502 31.1916 17.4229 30.9677 17.42C30.8075 17.42 30.6494 17.3827 30.5061 17.311C30.3628 17.2393 30.2381 17.1353 30.1419 17.0071C29.5198 16.1708 28.7099 15.4922 27.7776 15.0261C26.8453 14.5599 25.8165 14.3192 24.7742 14.3232C24.5004 14.3232 24.2379 14.2145 24.0443 14.0209C23.8507 13.8273 23.7419 13.5647 23.7419 13.291C23.7419 13.0172 23.8507 12.7546 24.0443 12.561C24.2379 12.3675 24.5004 12.2587 24.7742 12.2587C25.3617 12.2581 25.9369 12.0903 26.4326 11.7751C26.9284 11.4598 27.3242 11.0101 27.5739 10.4783C27.8237 9.94654 27.917 9.3547 27.843 8.77189C27.769 8.18908 27.5307 7.63934 27.1561 7.18684C26.7814 6.73435 26.2857 6.39778 25.7269 6.21641C25.1681 6.03505 24.5692 6.01638 24.0002 6.16258C23.4312 6.30879 22.9155 6.61383 22.5134 7.04211C22.1112 7.47038 21.8392 8.00421 21.729 8.58128C21.709 8.71928 21.6612 8.85178 21.5886 8.9708C21.5159 9.08981 21.4199 9.19288 21.3064 9.27377C21.1928 9.35467 21.064 9.41171 20.9278 9.44147C20.7915 9.47123 20.6507 9.47308 20.5137 9.4469C20.3768 9.42073 20.2465 9.36709 20.1309 9.2892C20.0152 9.21131 19.9166 9.1108 19.8408 8.99373C19.7651 8.87666 19.7138 8.74546 19.6902 8.60804C19.6665 8.47063 19.671 8.32984 19.7032 8.19419C19.8564 7.39138 20.198 6.63642 20.6999 5.99143C21.2018 5.34645 21.8498 4.82988 22.5904 4.48425C23.331 4.13862 24.1431 3.97381 24.9598 4.00338C25.7766 4.03295 26.5746 4.25605 27.2883 4.65433C28.002 5.05261 28.6109 5.61467 29.0648 6.29426C29.5188 6.97385 29.8049 7.75154 29.8996 8.56332C29.9943 9.3751 29.8949 10.1978 29.6095 10.9636C29.3241 11.7294 28.8609 12.4165 28.2581 12.9684C29.661 13.5767 30.88 14.5421 31.7935 15.7684C31.8749 15.8768 31.9341 16.0002 31.9677 16.1315C32.0013 16.2629 32.0088 16.3995 31.9896 16.5337C31.9705 16.6679 31.925 16.797 31.856 16.9137C31.7869 17.0303 31.6955 17.1322 31.5871 17.2135ZM24.3613 25.7426C24.4778 25.9895 24.4931 26.2721 24.4038 26.5302C24.3146 26.7882 24.128 27.001 23.8839 27.1232C23.7415 27.1866 23.5881 27.2217 23.4323 27.2264C23.2388 27.2251 23.0496 27.1701 22.8856 27.0676C22.7215 26.9651 22.5892 26.8191 22.5032 26.6458C21.908 25.4282 20.9829 24.4021 19.8331 23.6844C18.6834 22.9667 17.3553 22.5862 16 22.5862C14.6447 22.5862 13.3166 22.9667 12.1669 23.6844C11.0171 24.4021 10.092 25.4282 9.49678 26.6458C9.43754 26.7679 9.35483 26.8771 9.25336 26.9671C9.15189 27.0572 9.03366 27.1264 8.90543 27.1707C8.7772 27.2151 8.64149 27.2337 8.50605 27.2255C8.37062 27.2174 8.23812 27.1826 8.11613 27.1232C7.872 27.001 7.68537 26.7882 7.59616 26.5302C7.50694 26.2721 7.52221 25.9895 7.63871 25.7426C8.59804 23.7672 10.2252 22.1949 12.2323 21.3039C11.2049 20.5164 10.4501 19.4269 10.0739 18.1884C9.69763 16.95 9.71887 15.6247 10.1346 14.3989C10.5503 13.1731 11.3397 12.1083 12.3917 11.3542C13.4438 10.6001 14.7056 10.1946 16 10.1946C17.2944 10.1946 18.5562 10.6001 19.6083 11.3542C20.6603 12.1083 21.4497 13.1731 21.8654 14.3989C22.2811 15.6247 22.3024 16.95 21.9261 18.1884C21.5499 19.4269 20.7951 20.5164 19.7677 21.3039C21.7748 22.1949 23.402 23.7672 24.3613 25.7426ZM16 20.5168C16.8166 20.5168 17.615 20.2746 18.294 19.8209C18.973 19.3672 19.5022 18.7223 19.8147 17.9678C20.1272 17.2134 20.209 16.3832 20.0497 15.5822C19.8904 14.7812 19.4971 14.0455 18.9197 13.4681C18.3422 12.8906 17.6065 12.4974 16.8055 12.338C16.0046 12.1787 15.1744 12.2605 14.4199 12.573C13.6654 12.8855 13.0205 13.4148 12.5668 14.0938C12.1131 14.7728 11.871 15.5711 11.871 16.3877C11.8744 17.4818 12.3105 18.53 13.0841 19.3036C13.8577 20.0772 14.906 20.5134 16 20.5168ZM8.25807 13.291C8.25807 13.0172 8.14931 12.7546 7.95573 12.561C7.76214 12.3675 7.49958 12.2587 7.22581 12.2587C6.63832 12.2581 6.06313 12.0903 5.56738 11.7751C5.07163 11.4598 4.67579 11.0101 4.42606 10.4783C4.17633 9.94654 4.08301 9.3547 4.15701 8.77189C4.231 8.18908 4.46925 7.63934 4.84395 7.18684C5.21865 6.73435 5.71432 6.39778 6.27312 6.21641C6.83192 6.03505 7.43078 6.01638 7.99978 6.16258C8.56879 6.30879 9.08447 6.61383 9.48663 7.04211C9.88878 7.47038 10.1608 8.00421 10.271 8.58128C10.291 8.71928 10.3388 8.85178 10.4114 8.9708C10.4841 9.08981 10.5801 9.19288 10.6937 9.27377C10.8072 9.35467 10.936 9.41171 11.0722 9.44147C11.2085 9.47123 11.3493 9.47308 11.4863 9.4469C11.6232 9.42073 11.7535 9.36709 11.8691 9.2892C11.9848 9.21131 12.0835 9.1108 12.1592 8.99373C12.2349 8.87666 12.2862 8.74546 12.3098 8.60804C12.3335 8.47063 12.329 8.32984 12.2968 8.19419C12.1436 7.39138 11.802 6.63642 11.3001 5.99143C10.7982 5.34645 10.1502 4.82988 9.40962 4.48425C8.66902 4.13862 7.85692 3.97381 7.04017 4.00338C6.22343 4.03295 5.42538 4.25605 4.71171 4.65433C3.99804 5.05261 3.38915 5.61467 2.93516 6.29426C2.48117 6.97385 2.19506 7.75154 2.10037 8.56332C2.00568 9.3751 2.10513 10.1978 2.39052 10.9636C2.67591 11.7294 3.13909 12.4165 3.74194 12.9684C2.33899 13.5767 1.11999 14.5421 0.206456 15.7684C0.0421927 15.9874 -0.0283382 16.2627 0.0103789 16.5337C0.0490961 16.8047 0.19389 17.0493 0.412907 17.2135C0.59021 17.3502 0.808449 17.4229 1.03226 17.42C1.19252 17.42 1.35057 17.3827 1.4939 17.311C1.63724 17.2393 1.76192 17.1353 1.85807 17.0071C2.48024 16.1708 3.29009 15.4922 4.2224 15.0261C5.15472 14.5599 6.18346 14.3192 7.22581 14.3232C7.49958 14.3232 7.76214 14.2145 7.95573 14.0209C8.14931 13.8273 8.25807 13.5647 8.25807 13.291Z" fill="#353535"/>
<path d="M31.5871 17.2135C31.4098 17.3502 31.1916 17.4229 30.9677 17.42C30.8075 17.42 30.6494 17.3827 30.5061 17.311C30.3628 17.2393 30.2381 17.1353 30.1419 17.0071C29.5198 16.1708 28.7099 15.4922 27.7776 15.0261C26.8453 14.5599 25.8165 14.3192 24.7742 14.3232C24.5004 14.3232 24.2379 14.2145 24.0443 14.0209C23.8507 13.8273 23.7419 13.5647 23.7419 13.291C23.7419 13.0172 23.8507 12.7546 24.0443 12.561C24.2379 12.3675 24.5004 12.2587 24.7742 12.2587C25.3617 12.2581 25.9369 12.0903 26.4326 11.7751C26.9284 11.4598 27.3242 11.0101 27.5739 10.4783C27.8237 9.94654 27.917 9.3547 27.843 8.77189C27.769 8.18908 27.5307 7.63934 27.1561 7.18684C26.7814 6.73435 26.2857 6.39778 25.7269 6.21641C25.1681 6.03505 24.5692 6.01638 24.0002 6.16258C23.4312 6.30879 22.9155 6.61383 22.5134 7.04211C22.1112 7.47038 21.8392 8.00421 21.729 8.58128C21.709 8.71928 21.6612 8.85178 21.5886 8.9708C21.5159 9.08981 21.4199 9.19288 21.3064 9.27377C21.1928 9.35467 21.064 9.41171 20.9278 9.44147C20.7915 9.47123 20.6507 9.47308 20.5137 9.4469C20.3768 9.42073 20.2465 9.36709 20.1309 9.2892C20.0152 9.21131 19.9166 9.1108 19.8408 8.99373C19.7651 8.87666 19.7138 8.74546 19.6902 8.60804C19.6665 8.47063 19.671 8.32984 19.7032 8.19419C19.8564 7.39138 20.198 6.63642 20.6999 5.99143C21.2018 5.34645 21.8498 4.82988 22.5904 4.48425C23.331 4.13862 24.1431 3.97381 24.9598 4.00338C25.7766 4.03295 26.5746 4.25605 27.2883 4.65433C28.002 5.05261 28.6109 5.61467 29.0648 6.29426C29.5188 6.97385 29.8049 7.75154 29.8996 8.56332C29.9943 9.3751 29.8949 10.1978 29.6095 10.9636C29.3241 11.7294 28.8609 12.4165 28.2581 12.9684C29.661 13.5767 30.88 14.5421 31.7935 15.7684C31.8749 15.8768 31.9341 16.0002 31.9677 16.1315C32.0013 16.2629 32.0088 16.3995 31.9896 16.5337C31.9705 16.6679 31.925 16.797 31.856 16.9137C31.7869 17.0303 31.6955 17.1322 31.5871 17.2135ZM24.3613 25.7426C24.4778 25.9895 24.4931 26.2721 24.4038 26.5302C24.3146 26.7882 24.128 27.001 23.8839 27.1232C23.7415 27.1866 23.5881 27.2217 23.4323 27.2264C23.2388 27.2251 23.0496 27.1701 22.8856 27.0676C22.7215 26.9651 22.5892 26.8191 22.5032 26.6458C21.908 25.4282 20.9829 24.4021 19.8331 23.6844C18.6834 22.9667 17.3553 22.5862 16 22.5862C14.6447 22.5862 13.3166 22.9667 12.1669 23.6844C11.0171 24.4021 10.092 25.4282 9.49678 26.6458C9.43754 26.7679 9.35483 26.8771 9.25336 26.9671C9.15189 27.0572 9.03366 27.1264 8.90543 27.1707C8.7772 27.2151 8.64149 27.2337 8.50605 27.2255C8.37062 27.2174 8.23812 27.1826 8.11613 27.1232C7.872 27.001 7.68537 26.7882 7.59616 26.5302C7.50694 26.2721 7.52221 25.9895 7.63871 25.7426C8.59804 23.7672 10.2252 22.1949 12.2323 21.3039C11.2049 20.5164 10.4501 19.4269 10.0739 18.1884C9.69763 16.95 9.71887 15.6247 10.1346 14.3989C10.5503 13.1731 11.3397 12.1083 12.3917 11.3542C13.4438 10.6001 14.7056 10.1946 16 10.1946C17.2944 10.1946 18.5562 10.6001 19.6083 11.3542C20.6603 12.1083 21.4497 13.1731 21.8654 14.3989C22.2811 15.6247 22.3024 16.95 21.9261 18.1884C21.5499 19.4269 20.7951 20.5164 19.7677 21.3039C21.7748 22.1949 23.402 23.7672 24.3613 25.7426ZM16 20.5168C16.8166 20.5168 17.615 20.2746 18.294 19.8209C18.973 19.3672 19.5022 18.7223 19.8147 17.9678C20.1272 17.2134 20.209 16.3832 20.0497 15.5822C19.8904 14.7812 19.4971 14.0455 18.9197 13.4681C18.3422 12.8906 17.6065 12.4974 16.8055 12.338C16.0046 12.1787 15.1744 12.2605 14.4199 12.573C13.6654 12.8855 13.0205 13.4148 12.5668 14.0938C12.1131 14.7728 11.871 15.5711 11.871 16.3877C11.8744 17.4818 12.3105 18.53 13.0841 19.3036C13.8577 20.0772 14.906 20.5134 16 20.5168ZM8.25807 13.291C8.25807 13.0172 8.14931 12.7546 7.95573 12.561C7.76214 12.3675 7.49958 12.2587 7.22581 12.2587C6.63832 12.2581 6.06313 12.0903 5.56738 11.7751C5.07163 11.4598 4.67579 11.0101 4.42606 10.4783C4.17633 9.94654 4.08301 9.3547 4.15701 8.77189C4.231 8.18908 4.46925 7.63934 4.84395 7.18684C5.21865 6.73435 5.71432 6.39778 6.27312 6.21641C6.83192 6.03505 7.43078 6.01638 7.99978 6.16258C8.56879 6.30879 9.08447 6.61383 9.48663 7.04211C9.88878 7.47038 10.1608 8.00421 10.271 8.58128C10.291 8.71928 10.3388 8.85178 10.4114 8.9708C10.4841 9.08981 10.5801 9.19288 10.6937 9.27377C10.8072 9.35467 10.936 9.41171 11.0722 9.44147C11.2085 9.47123 11.3493 9.47308 11.4863 9.4469C11.6232 9.42073 11.7535 9.36709 11.8691 9.2892C11.9848 9.21131 12.0835 9.1108 12.1592 8.99373C12.2349 8.87666 12.2862 8.74546 12.3098 8.60804C12.3335 8.47063 12.329 8.32984 12.2968 8.19419C12.1436 7.39138 11.802 6.63642 11.3001 5.99143C10.7982 5.34645 10.1502 4.82988 9.40962 4.48425C8.66902 4.13862 7.85692 3.97381 7.04017 4.00338C6.22343 4.03295 5.42538 4.25605 4.71171 4.65433C3.99804 5.05261 3.38915 5.61467 2.93516 6.29426C2.48117 6.97385 2.19506 7.75154 2.10037 8.56332C2.00568 9.3751 2.10513 10.1978 2.39052 10.9636C2.67591 11.7294 3.13909 12.4165 3.74194 12.9684C2.33899 13.5767 1.11999 14.5421 0.206456 15.7684C0.0421927 15.9874 -0.0283382 16.2627 0.0103789 16.5337C0.0490961 16.8047 0.19389 17.0493 0.412907 17.2135C0.59021 17.3502 0.808449 17.4229 1.03226 17.42C1.19252 17.42 1.35057 17.3827 1.4939 17.311C1.63724 17.2393 1.76192 17.1353 1.85807 17.0071C2.48024 16.1708 3.29009 15.4922 4.2224 15.0261C5.15472 14.5599 6.18346 14.3192 7.22581 14.3232C7.49958 14.3232 7.76214 14.2145 7.95573 14.0209C8.14931 13.8273 8.25807 13.5647 8.25807 13.291Z" stroke="#353535" stroke-width="0.6" mask="url(#path-1-outside-1_260_337)"/>
</g>
<defs>
<clipPath id="clip0_260_337">
<rect width="32" height="32" fill="white"/>
</clipPath>
</defs>
</svg>
